<svg width="324" height="304" xmlns="http://www.w3.org/2000/svg" preserveAspectRatio="xMidYMid meet" version="1.0">

 <g>
  <title>Layer 1</title>
  <g id="svg_1" fill="#000000" transform="translate(0 304) scale(0.1 -0.1)">
   <path fill="bisque" id="svg_2" d="m2945,2780c-22,-11 -47,-19 -55,-20c-9,0 -21,-5 -28,-12c-7,-7 -12,-9 -12,-5c0,4 -10,2 -22,-5c-13,-7 -25,-13 -28,-14c-3,0 -13,-4 -22,-7c-10,-4 -26,-10 -35,-14c-10,-3 -20,-7 -23,-8c-5,-2 -16,-6 -55,-21c-11,-4 -22,-8 -25,-9c-3,-1 -13,-5 -22,-8c-41,-16 -54,-20 -63,-23c-5,-1 -21,-6 -35,-12c-14,-5 -27,-9 -30,-9c-3,0 -16,-6 -30,-13c-14,-8 -27,-15 -30,-16c-3,0 -13,-4 -22,-7c-10,-4 -26,-10 -35,-14c-10,-3 -20,-7 -23,-8c-3,-1 -13,-5 -22,-8c-10,-4 -26,-10 -35,-14c-10,-3 -20,-7 -23,-8c-3,-1 -13,-5 -22,-8c-10,-4 -26,-10 -35,-14c-10,-3 -20,-7 -23,-7c-3,-1 -14,-7 -25,-13c-11,-6 -22,-11 -25,-11c-3,0 -18,-5 -33,-11c-16,-6 -34,-11 -41,-11c-6,0 -17,-5 -24,-12c-7,-7 -12,-9 -12,-5c0,4 -10,2 -22,-5c-13,-7 -25,-13 -28,-14c-3,0 -13,-4 -22,-7c-10,-4 -26,-10 -35,-14c-10,-3 -20,-7 -23,-8c-3,-1 -13,-5 -22,-8c-20,-8 -38,-13 -53,-17c-5,-1 -19,-7 -30,-13c-11,-6 -23,-11 -27,-12c-3,0 -10,-3 -14,-7c-4,-5 -14,-8 -22,-8c-8,0 -28,-6 -45,-14c-28,-12 -61,-25 -77,-31c-3,-1 -13,-5 -22,-8c-10,-4 -26,-10 -35,-14c-10,-3 -20,-7 -23,-8c-16,-6 -49,-19 -77,-31c-17,-8 -38,-14 -46,-14c-9,0 -19,-4 -22,-10c-3,-5 -13,-10 -22,-10c-8,0 -29,-6 -46,-14c-40,-17 -70,-29 -79,-30c-3,-1 -10,-4 -14,-8c-4,-5 -14,-8 -22,-8c-8,0 -30,-7 -50,-16c-88,-39 -101,-44 -111,-44c-6,0 -19,-4 -29,-9c-14,-8 -36,-17 -62,-26c-3,-1 -14,-5 -25,-9c-39,-15 -50,-19 -55,-21c-3,-1 -13,-5 -22,-8c-10,-4 -26,-10 -35,-14c-10,-3 -20,-7 -23,-8c-3,-1 -13,-5 -22,-8c-43,-16 -54,-20 -64,-22c-6,-2 -27,-10 -45,-18c-29,-13 -62,-26 -79,-32c-3,-1 -13,-5 -22,-8c-10,-4 -26,-10 -35,-14c-10,-3 -20,-7 -23,-8c-3,-1 -13,-5 -22,-8c-41,-16 -54,-20 -63,-23c-5,-1 -23,-8 -40,-15c-16,-7 -32,-13 -35,-14c-3,0 -16,-7 -30,-15c-14,-7 -25,-12 -25,-11c0,1 -13,-2 -28,-8c-16,-6 -33,-11 -38,-11c-15,0 -61,-31 -88,-58c-18,-18 -24,-35 -24,-69c0,-39 5,-50 33,-74c18,-16 39,-30 46,-30c16,-2 31,-5 39,-9c3,-1 8,-3 13,-4c4,-1 13,-5 20,-9c6,-5 12,-6 12,-3c0,3 23,-3 50,-14c28,-11 50,-17 50,-14c0,4 7,1 15,-6c8,-7 15,-9 15,-5c0,4 7,2 15,-5c8,-7 15,-10 15,-6c0,3 23,-3 50,-14c28,-11 50,-17 50,-14c0,4 7,1 15,-6c8,-7 15,-9 15,-5c0,4 7,2 15,-5c8,-7 15,-10 15,-6c0,3 23,-3 50,-14c28,-11 50,-17 50,-14c0,4 7,1 15,-6c8,-7 15,-9 15,-5c0,4 7,2 15,-5c8,-7 15,-10 15,-6c0,3 24,-4 52,-15c29,-11 55,-20 57,-19c3,1 19,-40 37,-89c18,-50 31,-91 27,-91c-3,0 0,-7 7,-15c7,-8 9,-15 5,-15c-4,0 -2,-7 5,-15c7,-8 9,-15 5,-15c-4,0 -2,-7 5,-15c7,-8 9,-15 5,-15c-4,0 -2,-7 5,-15c7,-8 9,-15 5,-15c-4,0 -2,-7 5,-15c7,-8 9,-15 5,-15c-4,0 -2,-7 5,-15c7,-8 9,-15 5,-15c-4,0 -2,-7 5,-15c7,-8 10,-15 6,-15c-3,0 15,-57 40,-128c25,-70 45,-129 46,-132c0,-3 4,-16 9,-29c5,-13 11,-33 14,-45c2,-11 4,-22 6,-23c1,-2 3,-7 4,-13c1,-5 4,-12 5,-15c1,-3 3,-8 5,-12c4,-15 17,-48 30,-80c16,-37 76,-68 112,-58c49,12 150,100 343,296c96,98 107,106 128,97c12,-6 22,-15 22,-20c0,-4 6,-8 13,-8c7,0 20,-8 29,-18c23,-23 46,-42 53,-42c4,0 12,-6 19,-13c8,-6 24,-19 36,-27c12,-8 30,-22 40,-30c10,-8 28,-22 40,-30c12,-8 36,-27 54,-42c17,-15 37,-28 44,-28c6,0 12,-5 12,-10c0,-6 8,-14 18,-17c9,-4 22,-12 28,-17c6,-6 22,-18 34,-26c12,-8 30,-22 40,-30c10,-8 28,-22 40,-30c12,-8 28,-21 36,-28c7,-6 15,-12 19,-12c4,0 12,-6 19,-12c8,-7 24,-20 36,-28c12,-8 34,-25 48,-37c15,-13 35,-23 44,-23c9,0 19,-4 22,-8c9,-15 91,-11 125,6c25,13 39,31 57,73c13,31 26,70 29,85c2,16 7,40 10,54c3,14 7,36 10,50c3,14 7,36 10,50c3,14 7,36 10,50c11,55 15,76 21,100c3,14 7,35 10,48c2,12 6,33 9,47c3,14 7,36 10,50c3,14 7,36 10,50c2,14 7,36 10,50c2,14 7,35 9,48c2,12 7,33 10,47c4,14 8,36 11,50c8,39 14,73 20,100c3,14 7,36 10,50c3,14 7,36 10,50c3,14 7,36 10,50c3,14 7,36 10,50c3,14 7,36 10,50c3,14 7,36 11,50c3,14 7,34 9,45c5,33 14,78 21,105c7,31 12,57 18,90c2,14 6,32 9,40c3,8 9,33 13,55c13,86 19,114 28,155c4,14 8,36 11,50c3,14 7,36 10,50c3,14 7,36 10,50c3,14 7,36 10,50c3,14 7,36 10,50c3,14 7,36 10,50c3,14 7,36 10,50c3,14 7,36 11,50c6,26 11,49 19,90c5,24 7,35 20,105c3,17 6,54 7,84c1,110 -91,162 -197,111zm-355,-497c-19,-21 -47,-49 -64,-63c-36,-29 -93,-80 -146,-130c-21,-19 -63,-57 -95,-85c-32,-27 -77,-68 -100,-90c-23,-22 -71,-65 -105,-95c-34,-30 -77,-68 -95,-85c-18,-16 -63,-57 -100,-90c-37,-33 -82,-73 -100,-90c-18,-16 -61,-55 -95,-85c-35,-30 -80,-71 -100,-90c-21,-19 -68,-62 -105,-95c-37,-33 -82,-74 -99,-90c-17,-17 -41,-38 -53,-46c-23,-16 -25,-24 -38,-159c-2,-25 -7,-65 -10,-90c-6,-45 -9,-64 -21,-175c-3,-33 -7,-69 -9,-80c-1,-11 -3,-32 -4,-47c0,-16 -6,-28 -11,-28c-6,0 -9,3 -9,8c1,4 0,10 -1,15c-1,4 -4,12 -5,17c-1,6 -4,12 -5,15c-1,3 -4,10 -5,15c-1,6 -3,11 -5,13c-1,1 -3,10 -5,20c-2,10 -7,26 -11,35c-4,9 -9,26 -11,36c-2,11 -8,25 -14,33c-6,7 -9,13 -6,13c4,0 -11,49 -33,110c-22,61 -37,110 -33,110c3,0 0,7 -7,15c-7,8 -9,15 -5,15c4,0 2,7 -5,15c-7,8 -9,15 -5,15c4,0 2,7 -5,15c-7,8 -9,15 -5,15c4,0 2,7 -5,15c-7,8 -9,15 -5,15c4,0 2,7 -5,15c-7,8 -9,15 -5,15c4,0 2,7 -5,15c-7,8 -9,15 -5,15c4,0 2,7 -5,15c-7,8 -9,15 -5,15c4,0 2,7 -5,15c-7,8 -10,15 -6,15c3,0 -3,23 -14,52c-20,53 -15,78 16,78c8,0 14,4 14,9c0,5 11,12 25,15c14,4 25,11 25,16c0,6 7,10 15,10c8,0 15,4 15,9c0,5 8,11 17,15c18,5 53,26 63,36c10,10 45,31 62,36c10,4 18,10 18,14c0,4 8,10 18,14c17,5 52,26 62,36c10,10 45,31 63,36c9,4 17,10 17,14c0,4 8,10 18,14c17,5 52,26 62,36c10,10 45,31 63,36c9,4 17,10 17,15c0,5 7,9 15,9c8,0 15,4 15,10c0,5 11,12 25,16c14,3 25,9 25,13c0,3 18,15 40,25c22,11 40,23 40,28c0,4 7,8 15,8c8,0 15,4 15,9c0,5 11,12 25,15c14,4 25,11 25,16c0,6 7,10 15,10c8,0 15,4 15,8c0,5 18,17 40,28c22,10 40,22 40,27c0,4 7,7 15,7c8,0 15,4 15,10c0,5 11,12 25,16c14,3 25,10 25,15c0,5 7,9 15,9c8,0 15,4 15,10c0,5 11,12 25,16c14,3 25,9 25,13c0,3 14,12 30,19c17,8 36,19 43,25c19,18 50,37 70,43c9,4 17,10 17,15c0,5 7,9 15,9c8,0 15,4 15,9c0,5 8,11 18,15c17,5 52,26 62,36c10,10 45,31 63,36c9,4 17,10 17,14c0,4 8,10 18,14c20,6 54,28 62,38c3,4 17,11 30,17c20,7 29,5 44,-9c19,-18 19,-19 -14,-57z"/>
  </g>
 </g>
</svg>